<svg version="1.1" viewBox="0.0 0.0 55.0 55.0" fill="none" stroke="none" stroke-linecap="square" stroke-miterlimit="10" xmlns:xlink="http://www.w3.org/1999/xlink" xmlns="http://www.w3.org/2000/svg">
    <style>
        path {
            fill: currentColor;
        }
    </style>
    <g>
        <path d="m0.018597387 8.385576l0 0c0 -4.625478 3.7496908 -8.375168 8.375168 -8.375168l0 0c2.2212334 0 4.35149 0.8823813 5.922139 2.45303c1.5706482 1.5706489 2.4530296 3.7009056 2.4530296 5.922138l0 0c0 4.625478 -3.74969 8.37517 -8.375169 8.37517l0 0c-4.6254773 0 -8.375168 -3.749692 -8.375168 -8.37517z" fill-rule="evenodd"/>
        <path d="m19.144989 8.385576l0 0c0 -4.625478 3.749689 -8.375168 8.375168 -8.375168l0 0c2.2212334 0 4.35149 0.8823813 5.922138 2.45303c1.5706482 1.5706489 2.4530296 3.7009056 2.4530296 5.922138l0 0c0 4.625478 -3.749691 8.37517 -8.375168 8.37517l0 0c-4.6254787 0 -8.375168 -3.749692 -8.375168 -8.37517z" fill-rule="evenodd"/>
        <path d="m38.271378 8.385576l0 0c0 -4.625478 3.749691 -8.375168 8.375172 -8.375168l0 0c2.2212296 0 4.351486 0.8823813 5.922138 2.45303c1.5706482 1.5706489 2.4530296 3.7009056 2.4530296 5.922138l0 0c0 4.625478 -3.749691 8.37517 -8.375168 8.37517l0 0c-4.6254807 0 -8.375172 -3.749692 -8.375172 -8.37517z" fill-rule="evenodd"/>
        <path d="m55.0208 27.511053l0 0c0 4.6254787 -3.749691 8.375166 -8.375168 8.375166l0 0c-2.2212334 0 -4.35149 -0.8823776 -5.922138 -2.4530296c-1.5706482 -1.5706482 -2.4530296 -3.7009048 -2.4530296 -5.9221363l0 0c0 -4.6254787 3.7496872 -8.37517 8.375168 -8.37517l0 0c4.625477 0 8.375168 3.749691 8.375168 8.37517z" fill-rule="evenodd"/>
        <path d="m35.89441 27.511053l0 0c0 4.6254787 -3.749691 8.375166 -8.375168 8.375166l0 0c-2.2212334 0 -4.35149 -0.8823776 -5.922138 -2.4530296c-1.5706482 -1.5706482 -2.4530296 -3.7009048 -2.4530296 -5.9221363l0 0c0 -4.6254787 3.749691 -8.37517 8.375168 -8.37517l0 0c4.625477 0 8.375168 3.749691 8.375168 8.37517z" fill-rule="evenodd"/>
        <path d="m46.646076 38.26319l0 0c4.625477 0 8.375168 3.749691 8.375168 8.375168l0 0c0 2.2212334 -0.88238144 4.35149 -2.4530296 5.922138c-1.5706482 1.5706482 -3.7009048 2.4530296 -5.922138 2.4530296l0 0c-4.6254807 0 -8.375168 -3.749691 -8.375168 -8.375168l0 0c0 -4.625477 3.7496872 -8.375168 8.375168 -8.375168z" fill-rule="evenodd"/>
    </g>
</svg>