<svg version="1.1" viewBox="0.0 0.0 133.33333333333334 40.0" fill="none" stroke="none" stroke-linecap="square" stroke-miterlimit="10" xmlns:xlink="http://www.w3.org/1999/xlink" xmlns="http://www.w3.org/2000/svg">
    <style>
        path {
            fill: currentColor;
        }
    </style>
    <g>
        <path d="m9.612378 19.592964q0.875 0.453125 1.5625 1.046875q0.6875 0.578125 1.171875 1.234375q0.484375 0.65625 0.734375 1.328125q0.25 0.671875 0.25 1.3125q0 0.828125 -0.46875 1.484375q-0.46875 0.640625 -1.21875 1.09375q-0.75 0.453125 -1.71875 0.6875q-0.96875 0.2343769 -1.953125 0.2343769q-0.75 0 -1.453125 -0.1718769q-0.703125 -0.15625 -1.28125 -0.5q-0.578125 -0.34375 -1.0 -0.875q-0.40625 -0.546875 -0.578125 -1.296875q-0.03125 -0.109375 -0.03125 -0.171875q0 -0.390625 0.28125 -0.671875q0.265625 -0.28125 0.59375 -0.28125q0.15625 0 0.34375 0.0625q0.203125 0.046875 0.296875 0.25q0.1875 0.34375 0.515625 0.625q0.34375 0.265625 0.75 0.46875q0.421875 0.1875 0.890625 0.296875q0.46875 0.109375 0.90625 0.109375q0.46875 0 0.890625 -0.078125q0.421875 -0.09375 0.734375 -0.28125q0.328125 -0.1875 0.515625 -0.46875q0.1875 -0.296875 0.1875 -0.71875q0 -0.71875 -0.328125 -1.328125q-0.328125 -0.625 -0.859375 -1.140625q-0.515625 -0.53125 -1.1875 -0.984375q-0.65625 -0.453125 -1.328125 -0.859375q-0.0625 -0.046875 -0.203125 -0.25q-0.140625 -0.21875 -0.140625 -0.421875q0 -0.171875 0.078125 -0.28125q0.234375 -0.296875 0.53125 -0.609375q0.296875 -0.3125 0.640625 -0.578125q0.34375 -0.265625 0.75 -0.421875q0.40625 -0.171875 0.828125 -0.171875q0.3125 0 0.578125 0.09375q0.28125 0.078125 0.46875 0.21875q0.1875 0.125 0.296875 0.296875q0.109375 0.15625 0.109375 0.296875q0 0.203125 -0.109375 0.390625q-0.09375 0.1875 -0.265625 0.359375q-0.15625 0.171875 -0.375 0.34375q-0.203125 0.171875 -0.40625 0.328125zm13.296632 -1.015625q0.390625 -0.3125 0.671875 -0.46875q0.28125 -0.171875 0.484375 -0.25q0.203125 -0.078125 0.359375 -0.09375q0.171875 -0.015625 0.34375 -0.015625q0.296875 0 0.421875 0.21875q0.140625 0.21875 0.140625 0.46875q0 0.203125 -0.078125 0.375l-3.203125 6.6875q0.6875 -0.515625 1.578125 -1.015625q0.890625 -0.5 1.71875 -0.890625q0.828125 -0.390625 1.421875 -0.625q0.59375 -0.25 0.671875 -0.25q0.359375 0 0.625 0.28125q0.28125 0.265625 0.28125 0.671875q0 0.375 -0.28125 0.796875q-0.28125 0.40625 -0.984375 0.796875q-1.0 0.5625 -1.75 0.953125q-0.734375 0.390625 -1.3125 0.703125q-0.5625 0.3125 -1.015625 0.578125q-0.4375 0.25 -0.84375 0.5156269q-0.390625 0.28125 -0.765625 0.59375q-0.375 0.3125 -0.828125 0.71875q-0.328125 0.859375 -0.65625 1.640625q-0.3125 0.796875 -0.578125 1.3906231q-0.265625 0.609375 -0.4375 0.984375q-0.171875 0.375 -0.1875 0.40625q-1.15625 2.390625 -2.546875 2.390625q-0.57812595 0 -0.93750095 -0.375q-0.34375 -0.375 -0.34375 -1.015625q0 -0.609375 0.140625 -1.203125q0.15625 -0.59375 0.53125 -1.3125q0.375 -0.7187481 1.000001 -1.5937481q0.625 -0.875 1.578125 -2.0625l2.859375 -5.812502q-2.140625 2.5625 -3.890625 3.90625q-1.750001 1.3437519 -3.265626 1.3437519q-0.484375 0 -0.828125 -0.2187519q-0.34375 -0.21875 -0.34375 -0.734375q0 -0.71875 0.34375 -1.625q0.1875 -0.484375 0.390625 -0.890625q0.203125 -0.40625 0.421875 -0.8125q0.21875 -0.421875 0.453125 -0.890625q0.234375 -0.46875 0.515625 -1.0625q0.28125 -0.59375 0.609375 -1.375q0.34375 -0.78125 0.75000095 -1.828125q0.296875 -0.5625 0.75 -0.8125q0.453125 -0.25 0.890625 -0.25q0.4375 0 0.75 0.21875q0.3125 0.203125 0.3125 0.546875q0 0.171875 -0.0625 0.296875l-2.625 5.453125q-0.20312595 0.421875 -0.20312595 0.65625q0 0.21875 0.17187595 0.21875q0.15625 0 0.40625 -0.15625q0.25 -0.15625 0.453125 -0.359375l5.921875 -5.8125zm8.72168 8.59375q0 -0.6875 0.296875 -1.40625q0.3124981 -0.71875 0.7812481 -1.46875q0.484375 -0.765625 1.03125 -1.546875q0.5625 -0.78125 1.0625 -1.59375q0.140625 -0.234375 0.21875 -0.4375q0.09375 -0.203125 0.09375 -0.421875q0 -0.234375 -0.125 -0.375q-0.125 -0.15625 -0.375 -0.15625q-0.578125 0 -1.125 0.25q-0.546875 0.25 -1.046875 0.65625q-0.4999981 0.40625 -0.9531231 0.9375q-0.453125 0.53125 -0.84375 1.109375q-0.390625 0.5625 -0.734375 1.125q-0.34375 0.546875 -0.640625 1.0q-0.25 0.484375 -0.46875 1.046875q-0.21875 0.546875 -0.46875 1.03125q-0.25 0.46875 -0.5625 0.78125q-0.3125 0.3281269 -0.78125 0.3281269q-0.515625 0 -0.828125 -0.3281269q-0.296875 -0.328125 -0.296875 -0.796875q0 -0.25 0.1875 -0.796875q0.1875 -0.546875 0.484375 -1.265625q0.296875 -0.71875 0.65625 -1.53125q0.375 -0.828125 0.734375 -1.625q0.375 -0.8125 0.6875 -1.515625q0.328125 -0.703125 0.546875 -1.203125q0.265625 -0.625 0.6875 -0.921875q0.421875 -0.296875 0.828125 -0.296875q0.359375 0 0.640625 0.265625q0.28125 0.265625 0.28125 0.765625q0 0.375 -0.171875 0.8125q0.390625 -0.359375 0.8281231 -0.765625q0.453125 -0.421875 0.96875 -0.765625q0.515625 -0.359375 1.15625 -0.578125q0.65625 -0.234375 1.453125 -0.234375q0.40625 0 0.765625 0.109375q0.359375 0.09375 0.625 0.3125q0.28125 0.203125 0.453125 0.546875q0.1875 0.34375 0.21875 0.828125q0.328125 -0.328125 0.71875 -0.640625q0.390625 -0.328125 0.84375 -0.578125q0.453125 -0.265625 0.96875 -0.421875q0.53125 -0.15625 1.1875 -0.15625q0.46875 0 0.890625 0.109375q0.4375 0.09375 0.765625 0.328125q0.34375 0.234375 0.53125 0.609375q0.203125 0.359375 0.203125 0.90625q0 0.859375 -0.40625 1.640625q-0.390625 0.765625 -0.921875 1.40625q-0.171875 0.21875 -0.453125 0.546875q-0.28125 0.328125 -0.5625 0.703125q-0.265625 0.375 -0.46875 0.765625q-0.203125 0.390625 -0.203125 0.734375q0 0.328125 0.1875 0.421875q0.203125 0.078125 0.515625 0.078125q0.609375 0 1.296875 -0.359375q0.703125 -0.359375 1.375 -0.859375q0.671875 -0.515625 1.25 -1.0625q0.578125 -0.5625 0.921875 -0.9375q0.078125 -0.09375 0.1875 -0.140625q0.125 -0.046875 0.234375 -0.046875q0.265625 0 0.46875 0.234375q0.203125 0.234375 0.203125 0.609375q0 0.28125 -0.171875 0.625q-0.171875 0.34375 -0.578125 0.671875q-0.78125 0.75 -1.59375 1.4375q-0.796875 0.671875 -1.625 1.203125q-0.828125 0.515625 -1.65625 0.828125q-0.8125 0.3125019 -1.625 0.3125019q-1.0625 0 -1.71875 -0.5000019q-0.640625 -0.5 -0.640625 -1.59375q0 -0.71875 0.265625 -1.34375q0.265625 -0.625 0.671875 -1.203125q0.40625 -0.59375 0.84375 -1.125q0.453125 -0.546875 0.78125 -1.09375q0.140625 -0.234375 0.21875 -0.4375q0.09375 -0.203125 0.09375 -0.421875q0 -0.234375 -0.140625 -0.375q-0.125 -0.15625 -0.359375 -0.15625q-0.59375 0 -1.140625 0.25q-0.546875 0.25 -1.046875 0.65625q-0.5 0.40625 -0.953125 0.9375q-0.4375 0.53125 -0.84375 1.109375q-0.390625 0.5625 -0.734375 1.125q-0.34375 0.546875 -0.625 1.0q-0.265625 0.484375 -0.484375 1.046875q-0.203125 0.546875 -0.453125 1.03125q-0.25 0.46875 -0.578125 0.78125q-0.3125 0.3281269 -0.78125 0.3281269q-0.171875 0 -0.375 -0.0625q-0.1875 -0.06250191 -0.359375 -0.1875019q-0.1718731 -0.109375 -0.2812481 -0.265625q-0.09375 -0.15625 -0.109375 -0.34375zm18.507078 -7.484375q-0.53125 1.03125 -1.0 2.015625q-0.46875 0.984375 -0.890625 1.8125q-0.171875 0.34375 -0.34375 0.796875q-0.15625 0.453125 -0.15625 0.796875q0 0.203125 0.09375 0.3125q0.09375 0.109375 0.3125 0.109375q0.296875 0 0.75 -0.171875q0.46875 -0.1875 1.0 -0.46875q0.53125 -0.296875 1.109375 -0.671875q0.59375 -0.390625 1.15625 -0.796875q0.5625 -0.40625 1.078125 -0.8125q0.515625 -0.40625 0.921875 -0.75q0.234375 -0.15625 0.421875 -0.15625q0.25 0 0.40625 0.21875q0.15625 0.203125 0.15625 0.53125q0 0.328125 -0.15625 0.671875q-0.15625 0.34375 -0.578125 0.671875q-0.921875 0.859375 -1.875 1.625q-0.953125 0.75 -1.890625 1.328125q-0.9375 0.578125 -1.859375 0.921875q-0.90625 0.3437519 -1.765625 0.3437519q-0.578125 0 -0.96875 -0.1562519q-0.390625 -0.140625 -0.625 -0.40625q-0.234375 -0.265625 -0.34375 -0.609375q-0.09375 -0.359375 -0.09375 -0.765625q0 -0.71875 0.234375 -1.484375q0.25 -0.78125 0.5625 -1.390625q0.421875 -0.890625 0.84375 -1.765625q0.421875 -0.875 0.828125 -1.671875l-0.609375 0q-0.8125 0 -1.109375 -0.25q-0.296875 -0.265625 -0.296875 -0.59375q0 -0.140625 0.09375 -0.34375q0.09375 -0.21875 0.265625 -0.390625q0.1875 -0.1875 0.4375 -0.3125q0.265625 -0.125 0.59375 -0.125l1.546875 0l3.015625 -6.0q0.28125 -0.546875 0.703125 -0.78125q0.421875 -0.234375 0.890625 -0.234375q0.421875 0 0.78125 0.234375q0.359375 0.21875 0.359375 0.75q0 0.265625 -0.125 0.546875q-0.125 0.28125 -0.3125 0.65625q-0.140625 0.234375 -0.328125 0.578125q-0.171875 0.34375 -0.390625 0.71875q-0.203125 0.375 -0.421875 0.796875q-0.21875 0.40625 -0.4375 0.796875q-0.484375 0.921875 -1.03125 1.9375l4.671875 0q0.34375 0 0.625 0.03125q0.28125 0.03125 0.484375 0.140625q0.21875 0.109375 0.328125 0.296875q0.125 0.1875 0.125 0.5q0 0.15625 -0.0625 0.3125q-0.046875 0.15625 -0.1875 0.296875q-0.125 0.125 -0.375 0.21875q-0.234375 0.078125 -0.59375 0.109375l-5.96875 0.03125zm9.217407 -0.484375q-0.078125 -0.015625 -0.140625 -0.015625q-0.046875 0 -0.125 0q-0.546875 0 -1.015625 0.21875q-0.46875 0.21875 -0.859375 0.578125q-0.390625 0.34375 -0.703125 0.796875q-0.3125 0.4375 -0.5625 0.875q-0.234375 0.421875 -0.40625 0.828125q-0.15625 0.40625 -0.25 0.671875q0.5 -0.25 1.03125 -0.578125q0.546875 -0.328125 1.015625 -0.625q0.484375 -0.3125 0.828125 -0.546875q0.359375 -0.25 0.5 -0.34375q0.640625 -0.390625 0.875 -0.734375q0.25 -0.359375 0.25 -0.625q0 -0.203125 -0.140625 -0.328125q-0.125 -0.140625 -0.296875 -0.171875zm0.515625 -1.96875q1.1875 0 1.765625 0.578125q0.59375 0.5625 0.59375 1.578125q0 0.609375 -0.3125 1.265625q-0.3125 0.65625 -1.09375 1.34375q-0.765625 0.671875 -2.0625 1.390625q-1.296875 0.703125 -3.25 1.421875q0.078125 0.40625 0.4375 0.640625q0.375 0.234375 1.0 0.234375q0.65625 0 1.40625 -0.1875q0.75 -0.1875 1.484375 -0.484375q0.75 -0.3125 1.4375 -0.65625q0.703125 -0.359375 1.265625 -0.671875q0.578125 -0.3125 0.953125 -0.53125q0.375 -0.234375 0.5156288 -0.296875q0.125 -0.09375 0.234375 -0.09375q0.109375 -0.015625 0.1875 -0.015625q0.171875 0 0.28125 0.078125q0.125 0.078125 0.203125 0.1875q0.078125 0.09375 0.109375 0.21875q0.03125 0.125 0.03125 0.21875q0 0.125 -0.03125 0.3125q-0.03125 0.171875 -0.21875 0.390625q-0.078125 0.078125 -0.484375 0.390625q-0.4062538 0.3125 -1.0468788 0.75q-0.640625 0.421875 -1.5 0.90625q-0.84375 0.484375 -1.796875 0.890625q-0.953125 0.390625 -1.984375 0.65625q-1.03125 0.2656269 -2.03125 0.2656269q-0.859375 0 -1.53125 -0.3281269q-0.671875 -0.328125 -1.140625 -0.890625q-0.453125 -0.5625 -0.703125 -1.28125q-0.234375 -0.734375 -0.234375 -1.546875q0 -0.609375 0.234375 -1.34375q0.25 -0.734375 0.703125 -1.484375q0.453125 -0.75 1.125 -1.453125q0.671875 -0.703125 1.5 -1.25q0.828125 -0.546875 1.8125 -0.875q1.0 -0.328125 2.140625 -0.328125zm5.940922 1.734375q0.28125 -0.625 0.703125 -0.921875q0.4375 -0.296875 0.859375 -0.296875q0.34375 0 0.609375 0.25q0.28125 0.25 0.28125 0.734375q0 0.1875 -0.046875 0.40625q-0.046875 0.203125 -0.15625 0.453125q0.3125 -0.40625 0.890625 -0.828125q0.59375 -0.421875 1.296875 -0.75q0.71875 -0.34375 1.46875 -0.546875q0.75 -0.21875 1.421875 -0.21875q0.765625 0 1.265625 0.359375q0.515625 0.359375 0.515625 1.234375q0 0.515625 -0.15625 1.078125q-0.15625 0.5625 -0.40625 1.125q-0.25 0.546875 -0.5625 1.09375q-0.3125 0.53125 -0.609375 1.015625q-0.296875 0.46875 -0.546875 0.859375q-0.25 0.390625 -0.40625 0.640625q-0.1875 0.234375 -0.1875 0.53125q0 0.125 0.078125 0.21875q0.078125 0.078125 0.234375 0.078125q0.09375 0 0.21875 -0.015625q0.140625 -0.03125 0.328125 -0.15625q0.765625 -0.296875 1.578125 -0.71875q0.8125 -0.4375 1.546875 -0.90625q0.75 -0.484375 1.375 -0.953125q0.625 -0.484375 1.03125 -0.875q0.125 -0.109375 0.234375 -0.140625q0.109375 -0.046875 0.21875 -0.046875q0.234375 0 0.375 0.1875q0.140625 0.1875 0.140625 0.46875q0 0.4375 -0.28125 0.984375q-0.28125 0.546875 -0.890625 1.015625q-0.8125 0.59375 -1.5 1.078125q-0.671875 0.484375 -1.390625 0.90625q-0.703125 0.421875 -1.515625 0.796875q-0.796875 0.359375 -1.890625 0.671875q-0.375 0.125 -0.6875 0.1718769q-0.296875 0.0625 -0.5625 0.0625q-0.75 0 -1.109375 -0.4218769q-0.34375 -0.421875 -0.34375 -1.1875q0 -0.09375 0 -0.1875q0.015625 -0.09375 0.03125 -0.203125q0.03125 -0.453125 0.234375 -0.984375q0.203125 -0.53125 0.5 -1.078125q0.296875 -0.5625 0.625 -1.109375q0.328125 -0.5625 0.609375 -1.046875q0.28125 -0.5 0.453125 -0.875q0.1875 -0.390625 0.1875 -0.640625q0 -0.21875 -0.125 -0.359375q-0.109375 -0.15625 -0.359375 -0.15625q-0.90625 0 -1.734375 0.546875q-0.828125 0.546875 -1.546875 1.34375q-0.703125 0.78125 -1.3125 1.671875q-0.59375 0.890625 -1.0625 1.59375q-0.28125 0.46875 -0.515625 1.015625q-0.234375 0.53125 -0.5 1.0q-0.25 0.46875 -0.578125 0.765625q-0.3281288 0.3125019 -0.8125038 0.3125019q-0.5 0 -0.78125 -0.3125019q-0.28125 -0.3125 -0.28125 -0.78125q0 -0.234375 0.1875 -0.78125q0.203125 -0.546875 0.515625 -1.265625q0.328125 -0.71875 0.71875 -1.53125q0.3906288 -0.828125 0.7812538 -1.640625q0.390625 -0.8125 0.75 -1.515625q0.359375 -0.71875 0.59375 -1.21875zm15.431183 0.625q0.875 0.453125 1.5625 1.046875q0.6875 0.578125 1.171875 1.234375q0.484375 0.65625 0.734375 1.328125q0.25 0.671875 0.25 1.3125q0 0.828125 -0.46875 1.484375q-0.46875 0.640625 -1.21875 1.09375q-0.75 0.453125 -1.71875 0.6875q-0.96875 0.2343769 -1.953125 0.2343769q-0.75 0 -1.453125 -0.1718769q-0.703125 -0.15625 -1.28125 -0.5q-0.578125 -0.34375 -1.0 -0.875q-0.40625 -0.546875 -0.578125 -1.296875q-0.03125 -0.109375 -0.03125 -0.171875q0 -0.390625 0.28125 -0.671875q0.265625 -0.28125 0.59375 -0.28125q0.15625 0 0.34375 0.0625q0.203125 0.046875 0.296875 0.25q0.1875 0.34375 0.515625 0.625q0.34375 0.265625 0.75 0.46875q0.421875 0.1875 0.890625 0.296875q0.46875 0.109375 0.90625 0.109375q0.46875 0 0.890625 -0.078125q0.421875 -0.09375 0.734375 -0.28125q0.328125 -0.1875 0.515625 -0.46875q0.1875 -0.296875 0.1875 -0.71875q0 -0.71875 -0.328125 -1.328125q-0.328125 -0.625 -0.859375 -1.140625q-0.515625 -0.53125 -1.1875 -0.984375q-0.65625 -0.453125 -1.328125 -0.859375q-0.0625 -0.046875 -0.203125 -0.25q-0.140625 -0.21875 -0.140625 -0.421875q0 -0.171875 0.078125 -0.28125q0.234375 -0.296875 0.53125 -0.609375q0.296875 -0.3125 0.640625 -0.578125q0.34375 -0.265625 0.75 -0.421875q0.40625 -0.171875 0.828125 -0.171875q0.3125 0 0.578125 0.09375q0.28125 0.078125 0.46875 0.21875q0.1875 0.125 0.296875 0.296875q0.109375 0.15625 0.109375 0.296875q0 0.203125 -0.109375 0.390625q-0.09375 0.1875 -0.265625 0.359375q-0.15625 0.171875 -0.375 0.34375q-0.203125 0.171875 -0.40625 0.328125zm10.124756 0.171875q-0.671875 0 -1.296875 0.34375q-0.625 0.328125 -1.109375 0.890625q-0.46875 0.546875 -0.765625 1.25q-0.28125 0.6875 -0.28125 1.40625q0 0.28125 0.046875 0.609375q0.046875 0.3125 0.171875 0.59375q0.140625 0.28125 0.390625 0.46875q0.265625 0.1875 0.703125 0.1875q0.65625 0 1.28125 -0.34375q0.625 -0.359375 1.109375 -0.921875q0.484375 -0.578125 0.765625 -1.28125q0.296875 -0.71875 0.296875 -1.453125q0 -0.296875 -0.046875 -0.59375q-0.03125 -0.3125 -0.171875 -0.5625q-0.125 -0.265625 -0.390625 -0.421875q-0.25 -0.171875 -0.703125 -0.171875zm0.75 -2.515625q0.546875 0 1.15625 0.140625q0.625 0.140625 1.15625 0.484375q0.53125 0.34375 0.875 0.90625q0.359375 0.5625 0.359375 1.40625q0 0.421875 -0.109375 0.984375q-0.109375 0.546875 -0.34375 1.140625q0.140625 0.171875 0.328125 0.25q0.1875 0.0625 0.40625 0.0625q0.296875 0 0.65625 -0.171875q0.375 -0.171875 0.75 -0.4375q0.390625 -0.28125 0.78125 -0.625q0.390625 -0.34375 0.734375 -0.6875q0.34375 -0.34375 0.609375 -0.640625q0.28125 -0.3125 0.46875 -0.53125q0.109375 -0.09375 0.25 -0.09375q0.203125 0 0.359375 0.21875q0.15625 0.203125 0.15625 0.578125q0 0.359375 -0.234375 0.84375q-0.21875 0.484375 -0.8125 1.015625q-0.34375 0.375 -0.796875 0.875q-0.4375 0.484375 -0.9375 0.921875q-0.5 0.421875 -1.046875 0.71875q-0.546875 0.296875 -1.09375 0.296875q-0.359375 0 -0.71875 -0.109375q-0.34375 -0.125 -0.703125 -0.375q-0.515625 0.796875 -1.1875 1.46875q-0.65625 0.65625 -1.46875 1.125q-0.796875 0.46875 -1.734375 0.734375q-0.9375 0.2656269 -2.0 0.2656269q-0.40625 0 -0.9375 -0.1562519q-0.515625 -0.15625 -1.0 -0.515625q-0.484375 -0.375 -0.8125 -0.953125q-0.328125 -0.59375 -0.328125 -1.4375q0 -0.578125 0.1875 -1.375q0.1875 -0.8125 0.5625 -1.65625q0.375 -0.859375 0.953125 -1.6875q0.59375 -0.84375 1.390625 -1.5q0.796875 -0.671875 1.828125 -1.078125q1.03125 -0.40625 2.296875 -0.40625zm10.909302 2.0625q0.5625 -0.34375 1.15625 -0.625q0.59375 -0.296875 1.140625 -0.5q0.5625 -0.21875 1.0625 -0.328125q0.515625 -0.125 0.921875 -0.125q0.640625 0 0.984375 0.3125q0.359375 0.296875 0.359375 1.03125q0 0.15625 -0.015625 0.34375q-0.015625 0.171875 -0.046875 0.375q-0.078125 0.375 -0.4375 0.875q-0.359375 0.5 -0.84375 1.046875q-0.46875 0.53125 -1.03125 1.09375q-0.546875 0.546875 -1.015625 1.015625q-0.453125 0.46875 -0.765625 0.8125q-0.3125 0.34375 -0.3125 0.46875q0 0.109375 0.015625 0.15625q0.015625 0.046875 0.125 0.046875q0.78125 -0.328125 1.734375 -0.796875q0.953125 -0.46875 1.890625 -0.953125q0.953125 -0.484375 1.796875 -0.953125q0.84375 -0.46875 1.4375 -0.8125q0.125 -0.0625 0.25 -0.109375q0.140625 -0.0625 0.265625 -0.0625q0.25 0 0.421875 0.171875q0.171875 0.171875 0.171875 0.453125q0 0.34375 -0.28125 0.765625q-0.28125 0.421875 -0.9375 0.875q-0.5 0.3125 -1.125 0.71875q-0.625 0.390625 -1.3125 0.8125q-0.671875 0.421875 -1.375 0.828125q-0.6875 0.390625 -1.328125 0.703125q-0.640625 0.3125 -1.21875 0.515625q-0.5625 0.1875 -0.96875 0.1875q-0.984375 0 -1.484375 -0.46875q-0.5 -0.46875 -0.5 -1.21875q0 -0.109375 0.015625 -0.171875q0.109375 -0.625 0.375 -1.21875q0.28125 -0.59375 0.625 -1.109375q0.34375 -0.53125 0.703125 -1.015625q0.375 -0.484375 0.6875 -0.90625q0.3125 -0.421875 0.5 -0.78125q0.203125 -0.359375 0.203125 -0.65625q0 -0.078125 -0.03125 -0.140625q-0.015625 -0.078125 -0.125 -0.078125q-0.171875 0 -0.5625 0.140625q-0.390625 0.125 -0.84375 0.34375q-0.4375 0.203125 -0.84375 0.484375q-0.390625 0.28125 -0.5625 0.59375q-0.234375 0.40625 -0.53125 1.03125q-0.296875 0.609375 -0.625 1.28125q-0.328125 0.671875 -0.625 1.328125q-0.296875 0.65625 -0.515625 1.125q-0.171875 0.421875 -0.453125 0.75q-0.28125 0.328125 -0.609375 0.5625q-0.328125 0.21875 -0.671875 0.34375q-0.34375 0.1406269 -0.625 0.1406269q-0.328125 0 -0.53125 -0.1718769q-0.1875 -0.171875 -0.1875 -0.5625q0 -0.15625 0.046875 -0.390625q0.046875 -0.234375 0.203125 -0.515625q0.265625 -0.5 0.53125 -1.0625q0.265625 -0.578125 0.609375 -1.3125q0.34375 -0.734375 0.796875 -1.6875q0.453125 -0.953125 1.0625 -2.203125q-0.203125 -0.171875 -0.34375 -0.421875q-0.125 -0.25 -0.125 -0.625q0 -0.34375 0.140625 -0.59375q0.140625 -0.25 0.375 -0.40625q0.25 -0.15625 0.578125 -0.234375q0.328125 -0.078125 0.671875 -0.078125q0.375 0 0.75 0.0625q0.375 0.0625 0.671875 0.203125q0.296875 0.125 0.46875 0.3125q0.1875 0.171875 0.1875 0.421875q0 0.046875 -0.03125 0.125q-0.015625 0.0625 -0.0625 0.15625q-0.03125 0.078125 -0.0625 0.15625q-0.03125 0.0625 -0.03125 0.109375q0 0.03125 0.015625 0.03125l0.015625 0l0.03125 -0.015625z" fill-rule="nonzero"/>
        <path d="m105.8748 12.037851l0 0c0 -1.7562656 1.4237366 -3.1799994 3.1800003 -3.1799994l0 0c0.8433914 0 1.6522369 0.33503437 2.2486038 0.9314003c0.59635925 0.596365 0.9313965 1.4052105 0.9313965 2.248599l0 0c0 1.7562656 -1.4237366 3.1800003 -3.1800003 3.1800003l0 0c-1.7562637 0 -3.1800003 -1.4237347 -3.1800003 -3.1800003z" fill-rule="evenodd"/>
        <path d="m113.13698 12.037851l0 0c0 -1.7562656 1.423729 -3.1799994 3.1800003 -3.1799994l0 0c0.8433838 0 1.6522293 0.33503437 2.2485962 0.9314003c0.5963669 0.596365 0.9314041 1.4052105 0.9314041 2.248599l0 0c0 1.7562656 -1.4237366 3.1800003 -3.1800003 3.1800003l0 0c-1.7562714 0 -3.1800003 -1.4237347 -3.1800003 -3.1800003z" fill-rule="evenodd"/>
        <path d="m120.39915 12.037851l0 0c0 -1.7562656 1.4237366 -3.1799994 3.1800003 -3.1799994l0 0c0.8433914 0 1.6522369 0.33503437 2.2486038 0.9314003c0.59635925 0.596365 0.9313965 1.4052105 0.9313965 2.248599l0 0c0 1.7562656 -1.4237366 3.1800003 -3.1800003 3.1800003l0 0c-1.7562637 0 -3.1800003 -1.4237347 -3.1800003 -3.1800003z" fill-rule="evenodd"/>
        <path d="m126.758804 19.299677l0 0c0 1.7562656 -1.4237366 3.1800003 -3.1800003 3.1800003l0 0c-0.8433914 0 -1.6522369 -0.33503532 -2.2486038 -0.9314003c-0.5963669 -0.596365 -0.9313965 -1.4052105 -0.9313965 -2.2486l0 0c0 -1.7562656 1.423729 -3.1800003 3.1800003 -3.1800003l0 0c1.7562637 0 3.1800003 1.4237347 3.1800003 3.1800003z" fill-rule="evenodd"/>
        <path d="m119.49663 19.299677l0 0c0 1.7562656 -1.4237366 3.1800003 -3.1800003 3.1800003l0 0c-0.8433914 0 -1.6522369 -0.33503532 -2.2485962 -0.9314003c-0.5963669 -0.596365 -0.9314041 -1.4052105 -0.9314041 -2.2486l0 0c0 -1.7562656 1.4237366 -3.1800003 3.1800003 -3.1800003l0 0c1.7562637 0 3.1800003 1.4237347 3.1800003 3.1800003z" fill-rule="evenodd"/>
        <path d="m123.57897 23.382198l0 0c1.7562637 0 3.1800003 1.4237347 3.1800003 3.1799984l0 0c0 0.8433895 -0.33503723 1.652235 -0.9314041 2.2486c-0.5963669 0.5963669 -1.4052124 0.9314003 -2.2485962 0.9314003l0 0c-1.7562714 0 -3.1800003 -1.4237347 -3.1800003 -3.1800003l0 0c0 -1.7562637 1.423729 -3.1799984 3.1800003 -3.1799984z" fill-rule="evenodd"/>
    </g>
</svg>